# xmcd CD database file
#
# Track frame offsets:
#	150
#	15910
#	39791
#	54817
#	70346
#	87539
#	108877
#	126016
#	147816
#	166624
#	183312
#	201295
#
# Disc length: 2942 seconds
#
# Revision: 3
# Processed by: cddbd v1.5.2PL0 Copyright (c) Steve Scherf et al.
# Submitted via: CDex 1.51
#
DISCID=8e0b7c0c
DTITLE=Wirtz - Auf Die Plätze Fertig Los!
DYEAR=2015
DGENRE=Deutsch
TTITLE0=Auf Die Plätze Fertig Los!
TTITLE1=Mantra
TTITLE2=Regentropfen
TTITLE3=Du Fährst Im Dunkeln
TTITLE4=Aus Versehen
TTITLE5=Wir
TTITLE6=Viel Glück
TTITLE7=Freitag Abend
TTITLE8=Ich Weiss Es Nicht
TTITLE9=Wenn Du Willst
TTITLE10=Sehnsucht
TTITLE11=Das Nächste Mal
EXTD=YEAR: 2015
EXTT0=
EXTT1=
EXTT2=
EXTT3=
EXTT4=
EXTT5=
EXTT6=
EXTT7=
EXTT8=
EXTT9=
EXTT10=
EXTT11=
PLAYORDER=
